# xmcd
#
# Track frame offsets: 
#        150
#        15945
#        32006
#        52703
#        65989
#        92182
#        109695
#        137875
#        152256
#        174417
#        192039
#        206557
#        221126
#        237806
#
# Disc length: 3397 seconds
#
# Revision: 0
# Processed by: cddbd v1.5.2PL0 Copyright (c) Steve Scherf et al.
# Submitted via: ExactAudioCopyFreeDBPlugin 1.0
#
DISCID=b50d430e
DTITLE=Various Artist - The Best of WUNC's Back Porch Music Volume 14
DYEAR=2011
DGENRE=Bluegrass
TTITLE0=Robin and Linda Williams - Stonewall Country
TTITLE1=Red Horse - Wayfaring Stranger
TTITLE2=Tim Eriksen - As I Travel
TTITLE3=Sidetrack - Rocky Road Blues
TTITLE4=Craicdown - The Baker's Set
TTITLE5=Mollie O'Brien and Rich Moore - Keep It Clean
TTITLE6=Peter Case - Ain't Gonna Worry No More
TTITLE7=Samantha Casey and The Bluegrass Jam - My Father's Footsteps
TTITLE8=Dean Magraw - Cast Your Fate to the Wind
TTITLE9=Storyhill - World Go Round
TTITLE10=Triakel - Barnamorderskan (The Cruel Mother)
TTITLE11=Larry Sparks - Great High Mountain
TTITLE12=Red Clay Ramblers - Way Down Yonder
TTITLE13=Darrell Scott - American Tune
EXTD=
EXTT0=
EXTT1=
EXTT2=
EXTT3=
EXTT4=
EXTT5=
EXTT6=
EXTT7=
EXTT8=
EXTT9=
EXTT10=
EXTT11=
EXTT12=
EXTT13=
PLAYORDER=
